<?xml version="1.0" encoding="UTF-8" standalone="no"?>
<svg
   xmlns:dc="http://purl.org/dc/elements/1.1/"
   xmlns:cc="http://creativecommons.org/ns#"
   xmlns:rdf="http://www.w3.org/1999/02/22-rdf-syntax-ns#"
   xmlns:svg="http://www.w3.org/2000/svg"
   xmlns="http://www.w3.org/2000/svg"
   viewBox="0 0 506.66666 160"
   height="160"
   width="506.66666"
   xml:space="preserve"
   id="svg2"
   version="1.1"><metadata
     id="metadata8"><rdf:RDF><cc:Work
         rdf:about=""><dc:format>image/svg+xml</dc:format><dc:type
           rdf:resource="http://purl.org/dc/dcmitype/StillImage" /></cc:Work></rdf:RDF></metadata><defs
     id="defs6" /><g
     transform="matrix(1.3333333,0,0,-1.3333333,0,160)"
     id="g10"><g
       transform="translate(-1692,-1584)"
       id="g12"><path
         id="path14"
         style="fill:#cd071e;fill-opacity:1;fill-rule:nonzero;stroke:#ffffff;stroke-width:1.27859998;stroke-linecap:butt;stroke-linejoin:miter;stroke-miterlimit:3.86360002;stroke-dasharray:none;stroke-opacity:1"
         d="m 1693.3968,1644.25 c 0,32.4097 26.2752,58.6822 58.6883,58.6822 32.413,0 58.6882,-26.2725 58.6882,-58.6822 0,-32.4097 -26.2752,-58.6823 -58.6882,-58.6823 -32.4131,0 -58.6883,26.2726 -58.6883,58.6823 z" /><path
         id="path16"
         style="fill:#cd071e;fill-opacity:1;fill-rule:nonzero;stroke:none"
         d="m 1693.3968,1644.25 c 0,32.4097 26.2752,58.6822 58.6883,58.6822 32.413,0 58.6882,-26.2725 58.6882,-58.6822 0,-32.4097 -26.2752,-58.6823 -58.6882,-58.6823 -32.4131,0 -58.6883,26.2726 -58.6883,58.6823 z" /><path
         id="path18"
         style="fill:#ffffff;fill-opacity:1;fill-rule:nonzero;stroke:none"
         d="m 1713.1906,1631.2301 v 26.036 h 25.8764 v 25.8731 h 26.0395 v -25.8731 h 25.873 v -26.036 h -25.873 v -25.8693 h -26.0395 v 25.8693 z" /><path
         id="path20"
         style="fill:#231f20;fill-opacity:1;fill-rule:evenodd;stroke:none"
         d="m 1826.3525,1654.7043 16.6522,1.0205 c 0.361,-2.6449 1.0961,-4.6598 2.2054,-6.0447 1.8065,-2.2416 4.3865,-3.3624 7.7401,-3.3624 2.5028,0 4.4313,0.5754 5.7855,1.7262 1.3542,1.1508 2.0313,2.4846 2.0313,4.0014 0,1.4415 -0.6401,2.7316 -1.9204,3.8702 -1.2803,1.1378 -4.2672,2.2125 -8.9605,3.2239 -7.6851,1.695 -13.1652,3.9456 -16.4403,6.7517 -3.3015,2.8053 -4.9523,6.3819 -4.9523,10.7299 0,2.8563 0.8452,5.5547 2.5356,8.0952 1.6904,2.5404 4.2325,4.5373 7.6261,5.9905 3.3936,1.4533 8.0454,2.1799 13.9555,2.1799 7.2515,0 12.7805,-1.3243 16.5871,-3.9728 3.8067,-2.6486 6.0713,-6.8624 6.7941,-12.6414 l -16.4936,-0.9561 c -0.4386,2.5251 -1.3612,4.3614 -2.7679,5.509 -1.4067,1.1475 -3.3486,1.7213 -5.8258,1.7213 -2.0386,0 -3.5741,-0.4235 -4.6066,-1.2706 -1.0325,-0.8471 -1.5488,-1.8776 -1.5488,-3.0916 0,-0.8851 0.4176,-1.6816 1.2527,-2.3894 0.8095,-0.7337 2.7617,-1.4168 5.8567,-2.0493 7.6596,-1.6189 13.1462,-3.2574 16.4602,-4.9155 3.3139,-1.6582 5.7252,-3.7152 7.2339,-6.171 1.5086,-2.4558 2.263,-5.2026 2.263,-8.2403 0,-3.5697 -1.0061,-6.8609 -3.0182,-9.8736 -2.0121,-3.0125 -4.8239,-5.2973 -8.4351,-6.8542 -3.6113,-1.5569 -8.1642,-2.3353 -13.6588,-2.3353 -9.6477,0 -16.329,1.821 -20.0439,5.4633 -3.715,3.6422 -5.8174,8.2707 -6.3072,13.8852 z" /><path
         id="path22"
         style="fill:#231f20;fill-opacity:1;fill-rule:evenodd;stroke:none"
         d="m 1879.3834,1676.638 h 15.2359 l 6.6238,-25.3337 8.3992,25.3337 h 14.1209 l 8.6928,-25.3653 6.6423,25.3653 h 15.1406 l -15.1344,-40.3493 h -14.0119 l -8.3211,24.2781 -8.0498,-24.2781 h -14.0887 z" /><path
         id="path24"
         style="fill:#231f20;fill-opacity:1;fill-rule:evenodd;stroke:none"
         d="m 1957.8798,1691.9537 h 15.78 v -10.4955 h -15.78 z m 0,-15.3157 h 15.78 v -40.3493 h -15.78 z" /><path
         id="path26"
         style="fill:#231f20;fill-opacity:1;fill-rule:evenodd;stroke:none"
         d="m 1979.396,1647.4839 15.6213,1.3994 c 0.6459,-1.81 1.55,-3.1048 2.7122,-3.8842 1.1622,-0.7795 2.7121,-1.1692 4.65,-1.1692 2.1179,0 3.7579,0.4434 4.9201,1.3301 0.9044,0.6584 1.3567,1.482 1.3567,2.4708 0,1.1144 -0.5939,1.9756 -1.7817,2.5838 -0.8516,0.4309 -3.1091,0.9629 -6.7724,1.5962 -5.469,0.9378 -9.2677,1.8055 -11.3963,2.6032 -2.1287,0.7977 -3.9217,2.1465 -5.3792,4.0464 -1.4574,1.8999 -2.1862,4.0654 -2.1862,6.4965 0,2.6595 0.7861,4.9518 2.3584,6.8767 1.5724,1.9251 3.7375,3.3625 6.4955,4.3125 2.7581,0.9499 6.4569,1.4248 11.0965,1.4248 4.8982,0 8.5136,-0.3678 10.8462,-1.1035 2.3327,-0.7358 4.2787,-1.8772 5.8382,-3.4244 1.5595,-1.5472 2.8547,-3.6401 3.8855,-6.2785 l -14.9076,-1.3994 c -0.3858,1.2844 -1.0288,2.229 -1.9292,2.834 -1.2348,0.8058 -2.7266,1.2087 -4.4752,1.2087 -1.7751,0 -3.0678,-0.3104 -3.8781,-0.9311 -0.8103,-0.6207 -1.2155,-1.3745 -1.2155,-2.2613 0,-0.988 0.5113,-1.7355 1.5339,-2.2424 1.0217,-0.507 3.2611,-0.9633 6.7179,-1.3691 5.2377,-0.5822 9.1335,-1.3926 11.6875,-2.4313 2.554,-1.0386 4.5081,-2.5208 5.8623,-4.4466 1.3542,-1.9258 2.0314,-4.0415 2.0314,-6.3471 0,-2.3307 -0.716,-4.5983 -2.1479,-6.8027 -1.4318,-2.2043 -3.6893,-3.9589 -6.7723,-5.2635 -3.0831,-1.3046 -7.2823,-1.9569 -12.5976,-1.9569 -7.5075,0 -12.8544,1.0517 -16.0407,3.1553 -3.1863,2.1035 -5.2309,5.0945 -6.1337,8.9728 z" /><path
         id="path28"
         style="fill:#231f20;fill-opacity:1;fill-rule:evenodd;stroke:none"
         d="m 2026.3052,1647.4839 15.6213,1.3994 c 0.646,-1.81 1.55,-3.1048 2.7122,-3.8842 1.1622,-0.7795 2.7122,-1.1692 4.65,-1.1692 2.1179,0 3.7579,0.4434 4.9201,1.3301 0.9044,0.6584 1.3567,1.482 1.3567,2.4708 0,1.1144 -0.5939,1.9756 -1.7817,2.5838 -0.8516,0.4309 -3.1091,0.9629 -6.7724,1.5962 -5.469,0.9378 -9.2677,1.8055 -11.3963,2.6032 -2.1286,0.7977 -3.9217,2.1465 -5.3792,4.0464 -1.4574,1.8999 -2.1862,4.0654 -2.1862,6.4965 0,2.6595 0.7862,4.9518 2.3585,6.8767 1.5722,1.9251 3.7374,3.3625 6.4954,4.3125 2.7581,0.9499 6.4569,1.4248 11.0965,1.4248 4.8982,0 8.5136,-0.3678 10.8463,-1.1035 2.3326,-0.7358 4.2786,-1.8772 5.8381,-3.4244 1.5595,-1.5472 2.8547,-3.6401 3.8855,-6.2785 l -14.9076,-1.3994 c -0.3858,1.2844 -1.0288,2.229 -1.9292,2.834 -1.2348,0.8058 -2.7266,1.2087 -4.4752,1.2087 -1.7751,0 -3.0678,-0.3104 -3.8781,-0.9311 -0.8103,-0.6207 -1.2155,-1.3745 -1.2155,-2.2613 0,-0.988 0.5113,-1.7355 1.5339,-2.2424 1.0218,-0.507 3.2611,-0.9633 6.7179,-1.3691 5.2377,-0.5822 9.1335,-1.3926 11.6875,-2.4313 2.554,-1.0386 4.5081,-2.5208 5.8623,-4.4466 1.3542,-1.9258 2.0314,-4.0415 2.0314,-6.3471 0,-2.3307 -0.716,-4.5983 -2.1478,-6.8027 -1.4319,-2.2043 -3.6894,-3.9589 -6.7724,-5.2635 -3.0831,-1.3046 -7.2823,-1.9569 -12.5976,-1.9569 -7.5075,0 -12.8544,1.0517 -16.0407,3.1553 -3.1863,2.1035 -5.2309,5.0945 -6.1337,8.9728 z" /><path
         id="path30"
         style="fill:#bdbcbc;fill-opacity:1;fill-rule:evenodd;stroke:none"
         d="m 1831.2504,1626.3239 h 15.551 c 3.3865,0 5.9231,-0.7905 7.6098,-2.3714 1.6867,-1.5809 2.53,-3.8305 2.53,-6.7489 0,-2.9995 -0.9199,-5.3437 -2.7598,-7.0325 -1.8398,-1.6888 -4.6477,-2.5332 -8.4238,-2.5332 h -5.1267 v -10.9795 h -9.3805 z m 9.3805,-12.6783 h 2.3049 c 1.813,0 3.0864,0.3075 3.8201,0.9225 0.7337,0.615 1.1006,1.4022 1.1006,2.3616 0,0.9327 -0.3184,1.7234 -0.9551,2.372 -0.6366,0.6487 -1.834,0.9731 -3.5919,0.9731 h -2.6786 z" /><path
         id="path32"
         style="fill:#bdbcbc;fill-opacity:1;fill-rule:evenodd;stroke:none"
         d="m 1868.4245,1611.2011 -8.0283,0.8286 c 0.3023,1.3785 0.7385,2.4631 1.3085,3.2538 0.57,0.7907 1.3909,1.4766 2.4627,2.058 0.7693,0.4186 1.8272,0.7429 3.1737,0.9727 1.3464,0.2298 2.8029,0.3447 4.3694,0.3447 2.5141,0 4.5336,-0.1384 6.0585,-0.4153 1.5249,-0.2769 2.7958,-0.8542 3.8125,-1.7321 0.7144,-0.6076 1.2777,-1.4687 1.6899,-2.583 0.4122,-1.1143 0.6182,-2.1778 0.6182,-3.1903 v -9.5016 c 0,-1.0129 0.065,-1.8064 0.1961,-2.3804 0.1308,-0.574 0.4162,-1.3066 0.8564,-2.1978 h -7.8699 c -0.3156,0.5494 -0.5215,0.9681 -0.6177,1.2562 -0.096,0.2881 -0.1922,0.7403 -0.2882,1.3566 -1.1004,-1.0367 -2.1939,-1.7771 -3.2806,-2.2212 -1.486,-0.5925 -3.2125,-0.8888 -5.1795,-0.8888 -2.6141,0 -4.5986,0.5952 -5.9536,1.7858 -1.355,1.1905 -2.0325,2.6582 -2.0325,4.4031 0,1.637 0.4883,2.9831 1.465,4.0384 0.9767,1.0552 2.7789,1.8398 5.4066,2.3538 3.1506,0.6224 5.1937,1.0587 6.1292,1.309 0.9355,0.2504 1.926,0.5784 2.9714,0.9841 0,1.0129 -0.2127,1.7219 -0.6381,2.1269 -0.4254,0.4051 -1.1736,0.6076 -2.2445,0.6076 -1.3724,0 -2.4017,-0.2175 -3.0879,-0.6526 -0.5356,-0.3396 -0.9681,-0.9784 -1.2973,-1.9162 z m 7.2678,-4.309 c -1.1572,-0.4087 -2.3628,-0.7699 -3.6167,-1.0837 -1.7083,-0.4497 -2.7897,-0.8925 -3.2444,-1.3284 -0.4684,-0.4497 -0.7025,-0.9607 -0.7025,-1.533 0,-0.6543 0.2308,-1.1893 0.6923,-1.6048 0.4615,-0.4157 1.1401,-0.6235 2.0358,-0.6235 0.9366,0 1.8079,0.2249 2.6138,0.6746 0.8059,0.4497 1.3777,0.9983 1.7153,1.6457 0.3376,0.6473 0.5064,1.4889 0.5064,2.5247 z" /><path
         id="path34"
         style="fill:#bdbcbc;fill-opacity:1;fill-rule:evenodd;stroke:none"
         d="m 1888.9881,1618.1617 h 7.8725 v -3.5055 c 0.7584,1.523 1.5409,2.5709 2.3474,3.1436 0.8066,0.5727 1.8026,0.8591 2.9879,0.8591 1.2408,0 2.5989,-0.3806 4.0743,-1.142 l -2.6059,-5.8471 c -0.9926,0.4057 -1.7785,0.6085 -2.3577,0.6085 -1.103,0 -1.9578,-0.4462 -2.5643,-1.3388 -0.8689,-1.2576 -1.3033,-3.6108 -1.3033,-7.0596 v -7.2215 h -8.4509 z" /><path
         id="path36"
         style="fill:#bdbcbc;fill-opacity:1;fill-rule:evenodd;stroke:none"
         d="m 1915.8411,1611.2011 -8.0283,0.8286 c 0.3023,1.3785 0.7385,2.4631 1.3085,3.2538 0.57,0.7907 1.3909,1.4766 2.4627,2.058 0.7694,0.4186 1.8273,0.7429 3.1736,0.9727 1.3465,0.2298 2.803,0.3447 4.3695,0.3447 2.5141,0 4.5336,-0.1384 6.0585,-0.4153 1.5249,-0.2769 2.7957,-0.8542 3.8125,-1.7321 0.7144,-0.6076 1.2777,-1.4687 1.6899,-2.583 0.4122,-1.1143 0.6182,-2.1778 0.6182,-3.1903 v -9.5016 c 0,-1.0129 0.065,-1.8064 0.1961,-2.3804 0.1308,-0.574 0.4162,-1.3066 0.8564,-2.1978 h -7.8699 c -0.3156,0.5494 -0.5215,0.9681 -0.6177,1.2562 -0.096,0.2881 -0.1922,0.7403 -0.2882,1.3566 -1.1004,-1.0367 -2.1939,-1.7771 -3.2806,-2.2212 -1.486,-0.5925 -3.2125,-0.8888 -5.1795,-0.8888 -2.6141,0 -4.5986,0.5952 -5.9536,1.7858 -1.355,1.1905 -2.0326,2.6582 -2.0326,4.4031 0,1.637 0.4884,2.9831 1.4651,4.0384 0.9767,1.0552 2.7789,1.8398 5.4066,2.3538 3.1506,0.6224 5.1937,1.0587 6.1292,1.309 0.9356,0.2504 1.926,0.5784 2.9714,0.9841 0,1.0129 -0.2127,1.7219 -0.6381,2.1269 -0.4255,0.4051 -1.1736,0.6076 -2.2445,0.6076 -1.3724,0 -2.4017,-0.2175 -3.0879,-0.6526 -0.5356,-0.3396 -0.9681,-0.9784 -1.2973,-1.9162 z m 7.2678,-4.309 c -1.1572,-0.4087 -2.3628,-0.7699 -3.6168,-1.0837 -1.7082,-0.4497 -2.7896,-0.8925 -3.2443,-1.3284 -0.4683,-0.4497 -0.7025,-0.9607 -0.7025,-1.533 0,-0.6543 0.2308,-1.1893 0.6923,-1.6048 0.4615,-0.4157 1.1401,-0.6235 2.0358,-0.6235 0.9366,0 1.8079,0.2249 2.6138,0.6746 0.8059,0.4497 1.3777,0.9983 1.7153,1.6457 0.3376,0.6473 0.5064,1.4889 0.5064,2.5247 z" /><path
         id="path38"
         style="fill:#bdbcbc;fill-opacity:1;fill-rule:evenodd;stroke:none"
         d="m 1952.0867,1618.1617 h 7.8534 v -20.2914 l 0.021,-0.9504 c 0,-1.3487 -0.2921,-2.6334 -0.8764,-3.8542 -0.5844,-1.2207 -1.3613,-2.2087 -2.331,-2.964 -0.9696,-0.7552 -2.2004,-1.3014 -3.6923,-1.6385 -1.4919,-0.3371 -3.2004,-0.5056 -5.1257,-0.5056 -4.4006,0 -7.4226,0.6483 -9.0659,1.9447 -1.6433,1.2965 -2.4649,3.0319 -2.4649,5.2062 0,0.2702 0.014,0.6349 0.042,1.0941 l 8.1559,-0.9115 c 0.2064,-0.7384 0.5226,-1.2486 0.9487,-1.5304 0.6184,-0.4161 1.3951,-0.6241 2.3299,-0.6241 1.21,0 2.114,0.3156 2.7119,0.9468 0.598,0.6312 0.8969,1.7323 0.8969,3.3033 v 3.2427 c -0.8252,-0.9594 -1.6503,-1.6553 -2.4752,-2.0878 -1.2927,-0.6754 -2.6884,-1.0132 -4.1871,-1.0132 -2.9292,0 -5.2944,1.2562 -7.0955,3.7684 -1.2791,1.7829 -1.9186,4.1396 -1.9186,7.0701 0,3.3495 0.8251,5.9022 2.4752,7.6582 1.6501,1.7558 3.8091,2.6338 6.4768,2.6338 1.7047,0 3.1106,-0.2836 4.2176,-0.8506 1.107,-0.5671 2.1417,-1.5054 3.1043,-2.8149 v 3.1683 z m -7.9075,-10.4163 c 0,-1.5546 0.3372,-2.7069 1.0118,-3.457 0.6745,-0.7501 1.5624,-1.1252 2.6637,-1.1252 1.0462,0 1.9239,0.3887 2.633,1.166 0.709,0.7772 1.0636,1.9499 1.0636,3.5178 0,1.568 -0.3717,2.7676 -1.1151,3.5988 -0.7435,0.8312 -1.6521,1.2468 -2.7261,1.2468 -1.0735,0 -1.9304,-0.3818 -2.5706,-1.1455 -0.6402,-0.7637 -0.9603,-2.0309 -0.9603,-3.8017 z" /><path
         id="path40"
         style="fill:#bdbcbc;fill-opacity:1;fill-rule:evenodd;stroke:none"
         d="m 1965.6299,1626.3239 h 8.4087 v -29.6655 h -8.4087 z" /><path
         id="path42"
         style="fill:#bdbcbc;fill-opacity:1;fill-rule:evenodd;stroke:none"
         d="m 1979.7146,1626.3239 h 8.4087 v -5.5934 h -8.4087 z m 0,-8.1622 h 8.4087 v -21.5033 h -8.4087 z" /><path
         id="path44"
         style="fill:#bdbcbc;fill-opacity:1;fill-rule:evenodd;stroke:none"
         d="m 2016.5745,1626.3239 v -29.6655 h -7.8733 v 3.1812 c -1.0999,-1.3548 -2.1037,-2.2693 -3.0112,-2.7436 -1.2105,-0.6232 -2.5582,-0.9348 -4.0433,-0.9348 -2.9837,0 -5.263,1.1148 -6.8376,3.3443 -1.5747,2.2296 -2.362,4.9387 -2.362,8.1272 0,3.5675 0.8698,6.2971 2.6093,8.1887 1.7394,1.8917 3.9498,2.8375 6.6313,2.8375 1.3059,0 2.4918,-0.2151 3.5576,-0.6454 1.0658,-0.4303 2.0112,-1.0758 2.836,-1.9364 v 10.2468 z m -8.4311,-18.8336 c 0,1.6923 -0.3637,2.9548 -1.0911,3.7875 -0.7273,0.8328 -1.6469,1.2491 -2.7587,1.2491 -0.9745,0 -1.7911,-0.3994 -2.4498,-1.1983 -0.6587,-0.7988 -0.988,-2.1391 -0.988,-4.0208 0,-1.7601 0.3397,-3.0496 1.019,-3.8688 0.6794,-0.8191 1.52,-1.2287 2.5218,-1.2287 1.0705,0 1.9625,0.4129 2.6762,1.2387 0.7137,0.8259 1.0706,2.173 1.0706,4.0413 z" /><path
         id="path46"
         style="fill:#bdbcbc;fill-opacity:1;fill-rule:evenodd;stroke:none"
         d="m 2046.0115,1605.3591 h -16.8596 c 0.1519,-1.3219 0.5174,-2.3066 1.0967,-2.954 0.8143,-0.9309 1.8768,-1.3964 3.1875,-1.3964 0.828,0 1.6143,0.2008 2.3591,0.6021 0.4555,0.2547 0.9454,0.7031 1.4696,1.3453 l 8.2819,-0.7458 c -1.2668,-2.158 -2.7952,-3.7056 -4.5853,-4.643 -1.7901,-0.9374 -4.3581,-1.4061 -7.7042,-1.4061 -2.9054,0 -5.1912,0.402 -6.8574,1.206 -1.6662,0.8041 -3.0466,2.0809 -4.1413,3.8306 -1.0946,1.7496 -1.642,3.8068 -1.642,6.1715 0,3.3646 1.0978,6.0874 3.2932,8.1683 2.1955,2.0808 5.2271,3.1213 9.0946,3.1213 3.1383,0 5.616,-0.4663 7.4329,-1.399 1.8169,-0.9326 3.2002,-2.2843 4.1499,-4.0548 0.9496,-1.7706 1.4244,-4.075 1.4244,-6.9131 z m -8.5354,3.9361 c -0.1655,1.5999 -0.6038,2.7457 -1.3148,3.4373 -0.7111,0.6916 -1.6464,1.0374 -2.8057,1.0374 -1.3394,0 -2.4094,-0.522 -3.21,-1.566 -0.5106,-0.6508 -0.835,-1.6204 -0.9732,-2.9087 z" /><path
         id="path48"
         style="fill:none;stroke:#ffffff;stroke-width:2.42479992;stroke-linecap:round;stroke-linejoin:round;stroke-miterlimit:3.86360002;stroke-dasharray:none;stroke-opacity:1"
         d="m 1840.6309,1613.6456 h 2.3049 c 1.813,0 3.0864,0.3075 3.8201,0.9225 0.7337,0.615 1.1006,1.4022 1.1006,2.3616 0,0.9327 -0.3184,1.7234 -0.9551,2.372 -0.6366,0.6487 -1.834,0.9731 -3.5919,0.9731 h -2.6786 z m -9.3805,12.6783 h 15.551 c 3.3865,0 5.9231,-0.7905 7.6098,-2.3714 1.6867,-1.5809 2.53,-3.8305 2.53,-6.7489 0,-2.9995 -0.9199,-5.3437 -2.7598,-7.0325 -1.8398,-1.6888 -4.6477,-2.5332 -8.4238,-2.5332 h -5.1267 v -10.9795 h -9.3805 z m 37.1741,-15.1228 -8.0283,0.8286 c 0.3023,1.3785 0.7385,2.4631 1.3085,3.2538 0.57,0.7907 1.3909,1.4766 2.4627,2.058 0.7693,0.4186 1.8272,0.7429 3.1737,0.9727 1.3464,0.2298 2.8029,0.3447 4.3694,0.3447 2.5141,0 4.5336,-0.1384 6.0585,-0.4153 1.5249,-0.2769 2.7958,-0.8542 3.8125,-1.7321 0.7144,-0.6076 1.2777,-1.4687 1.6899,-2.583 0.4122,-1.1143 0.6182,-2.1778 0.6182,-3.1903 v -9.5016 c 0,-1.0129 0.065,-1.8064 0.1961,-2.3804 0.1308,-0.574 0.4162,-1.3066 0.8564,-2.1978 h -7.8699 c -0.3156,0.5494 -0.5215,0.9681 -0.6177,1.2562 -0.096,0.2881 -0.1922,0.7403 -0.2882,1.3566 -1.1004,-1.0367 -2.1939,-1.7771 -3.2806,-2.2212 -1.486,-0.5925 -3.2125,-0.8888 -5.1795,-0.8888 -2.6141,0 -4.5986,0.5952 -5.9536,1.7858 -1.355,1.1905 -2.0325,2.6582 -2.0325,4.4031 0,1.637 0.4883,2.9831 1.465,4.0384 0.9767,1.0552 2.7789,1.8398 5.4066,2.3538 3.1506,0.6224 5.1937,1.0587 6.1292,1.309 0.9355,0.2504 1.926,0.5784 2.9714,0.9841 0,1.0129 -0.2127,1.7219 -0.6381,2.1269 -0.4254,0.4051 -1.1736,0.6076 -2.2445,0.6076 -1.3724,0 -2.4017,-0.2175 -3.0879,-0.6526 -0.5356,-0.3396 -0.9681,-0.9784 -1.2973,-1.9162 z m 7.2678,-4.309 c -1.1572,-0.4087 -2.3628,-0.7699 -3.6167,-1.0837 -1.7083,-0.4497 -2.7897,-0.8925 -3.2444,-1.3284 -0.4684,-0.4497 -0.7025,-0.9607 -0.7025,-1.533 0,-0.6543 0.2308,-1.1893 0.6923,-1.6048 0.4615,-0.4157 1.1401,-0.6235 2.0358,-0.6235 0.9366,0 1.8079,0.2249 2.6138,0.6746 0.8059,0.4497 1.3777,0.9983 1.7153,1.6457 0.3376,0.6473 0.5064,1.4889 0.5064,2.5247 z m 13.2958,11.2696 h 7.8725 v -3.5055 c 0.7584,1.523 1.5409,2.5709 2.3474,3.1436 0.8066,0.5727 1.8026,0.8591 2.9879,0.8591 1.2408,0 2.5989,-0.3806 4.0743,-1.142 l -2.6059,-5.8471 c -0.9926,0.4057 -1.7785,0.6085 -2.3577,0.6085 -1.103,0 -1.9578,-0.4462 -2.5643,-1.3388 -0.8689,-1.2576 -1.3033,-3.6108 -1.3033,-7.0596 v -7.2215 h -8.4509 z m 26.853,-6.9606 -8.0283,0.8286 c 0.3023,1.3785 0.7385,2.4631 1.3085,3.2538 0.57,0.7907 1.3909,1.4766 2.4627,2.058 0.7694,0.4186 1.8273,0.7429 3.1736,0.9727 1.3465,0.2298 2.803,0.3447 4.3695,0.3447 2.5141,0 4.5336,-0.1384 6.0585,-0.4153 1.5249,-0.2769 2.7957,-0.8542 3.8125,-1.7321 0.7144,-0.6076 1.2777,-1.4687 1.6899,-2.583 0.4122,-1.1143 0.6182,-2.1778 0.6182,-3.1903 v -9.5016 c 0,-1.0129 0.065,-1.8064 0.1961,-2.3804 0.1308,-0.574 0.4162,-1.3066 0.8564,-2.1978 h -7.8699 c -0.3156,0.5494 -0.5215,0.9681 -0.6177,1.2562 -0.096,0.2881 -0.1922,0.7403 -0.2882,1.3566 -1.1004,-1.0367 -2.1939,-1.7771 -3.2806,-2.2212 -1.486,-0.5925 -3.2125,-0.8888 -5.1795,-0.8888 -2.6141,0 -4.5986,0.5952 -5.9536,1.7858 -1.355,1.1905 -2.0326,2.6582 -2.0326,4.4031 0,1.637 0.4884,2.9831 1.4651,4.0384 0.9767,1.0552 2.7789,1.8398 5.4066,2.3538 3.1506,0.6224 5.1937,1.0587 6.1292,1.309 0.9356,0.2504 1.926,0.5784 2.9714,0.9841 0,1.0129 -0.2127,1.7219 -0.6381,2.1269 -0.4255,0.4051 -1.1736,0.6076 -2.2445,0.6076 -1.3724,0 -2.4017,-0.2175 -3.0879,-0.6526 -0.5356,-0.3396 -0.9681,-0.9784 -1.2973,-1.9162 z m 7.2678,-4.309 c -1.1572,-0.4087 -2.3628,-0.7699 -3.6168,-1.0837 -1.7082,-0.4497 -2.7896,-0.8925 -3.2443,-1.3284 -0.4683,-0.4497 -0.7025,-0.9607 -0.7025,-1.533 0,-0.6543 0.2308,-1.1893 0.6923,-1.6048 0.4615,-0.4157 1.1401,-0.6235 2.0358,-0.6235 0.9366,0 1.8079,0.2249 2.6138,0.6746 0.8059,0.4497 1.3777,0.9983 1.7153,1.6457 0.3376,0.6473 0.5064,1.4889 0.5064,2.5247 z m 28.9778,11.2696 h 7.8534 v -20.2914 l 0.021,-0.9504 c 0,-1.3487 -0.2921,-2.6334 -0.8764,-3.8542 -0.5844,-1.2207 -1.3613,-2.2087 -2.331,-2.964 -0.9696,-0.7552 -2.2004,-1.3014 -3.6923,-1.6385 -1.4919,-0.3371 -3.2004,-0.5056 -5.1257,-0.5056 -4.4006,0 -7.4226,0.6483 -9.0659,1.9447 -1.6433,1.2965 -2.4649,3.0319 -2.4649,5.2062 0,0.2702 0.014,0.6349 0.042,1.0941 l 8.1559,-0.9115 c 0.2064,-0.7384 0.5226,-1.2486 0.9487,-1.5304 0.6184,-0.4161 1.3951,-0.6241 2.3299,-0.6241 1.21,0 2.114,0.3156 2.7119,0.9468 0.598,0.6312 0.8969,1.7323 0.8969,3.3033 v 3.2427 c -0.8252,-0.9594 -1.6503,-1.6553 -2.4752,-2.0878 -1.2927,-0.6754 -2.6884,-1.0132 -4.1871,-1.0132 -2.9292,0 -5.2944,1.2562 -7.0955,3.7684 -1.2791,1.7829 -1.9186,4.1396 -1.9186,7.0701 0,3.3495 0.8251,5.9022 2.4752,7.6582 1.6501,1.7558 3.8091,2.6338 6.4768,2.6338 1.7047,0 3.1106,-0.2836 4.2176,-0.8506 1.107,-0.5671 2.1417,-1.5054 3.1043,-2.8149 v 3.1683 z m -7.9075,-10.4163 c 0,-1.5546 0.3372,-2.7069 1.0118,-3.457 0.6745,-0.7501 1.5624,-1.1252 2.6637,-1.1252 1.0462,0 1.9239,0.3887 2.633,1.166 0.709,0.7772 1.0636,1.9499 1.0636,3.5178 0,1.568 -0.3717,2.7676 -1.1151,3.5988 -0.7435,0.8312 -1.6521,1.2468 -2.7261,1.2468 -1.0735,0 -1.9304,-0.3818 -2.5706,-1.1455 -0.6402,-0.7637 -0.9603,-2.0309 -0.9603,-3.8017 z m 21.4507,18.5785 h 8.4087 v -29.6655 h -8.4087 z m 14.0847,0 h 8.4087 v -5.5934 h -8.4087 z m 0,-8.1622 h 8.4087 v -21.5033 h -8.4087 z m 36.8599,8.1622 v -29.6655 h -7.8733 v 3.1812 c -1.0999,-1.3548 -2.1037,-2.2693 -3.0112,-2.7436 -1.2105,-0.6232 -2.5582,-0.9348 -4.0433,-0.9348 -2.9837,0 -5.263,1.1148 -6.8376,3.3443 -1.5747,2.2296 -2.362,4.9387 -2.362,8.1272 0,3.5675 0.8698,6.2971 2.6093,8.1887 1.7394,1.8917 3.9498,2.8375 6.6313,2.8375 1.3059,0 2.4918,-0.2151 3.5576,-0.6454 1.0658,-0.4303 2.0112,-1.0758 2.836,-1.9364 v 10.2468 z m -8.4311,-18.8336 c 0,1.6923 -0.3637,2.9548 -1.0911,3.7875 -0.7273,0.8328 -1.6469,1.2491 -2.7587,1.2491 -0.9745,0 -1.7911,-0.3994 -2.4498,-1.1983 -0.6587,-0.7988 -0.988,-2.1391 -0.988,-4.0208 0,-1.7601 0.3397,-3.0496 1.019,-3.8688 0.6794,-0.8191 1.52,-1.2287 2.5218,-1.2287 1.0705,0 1.9625,0.4129 2.6762,1.2387 0.7137,0.8259 1.0706,2.173 1.0706,4.0413 z m 37.8681,-2.1312 h -16.8596 c 0.1519,-1.3219 0.5174,-2.3066 1.0967,-2.954 0.8143,-0.9309 1.8768,-1.3964 3.1875,-1.3964 0.828,0 1.6143,0.2008 2.3591,0.6021 0.4555,0.2547 0.9454,0.7031 1.4696,1.3453 l 8.2819,-0.7458 c -1.2668,-2.158 -2.7952,-3.7056 -4.5853,-4.643 -1.7901,-0.9374 -4.3581,-1.4061 -7.7042,-1.4061 -2.9054,0 -5.1912,0.402 -6.8574,1.206 -1.6662,0.8041 -3.0466,2.0809 -4.1413,3.8306 -1.0946,1.7496 -1.642,3.8068 -1.642,6.1715 0,3.3646 1.0978,6.0874 3.2932,8.1683 2.1955,2.0808 5.2271,3.1213 9.0946,3.1213 3.1383,0 5.616,-0.4663 7.4329,-1.399 1.8169,-0.9326 3.2002,-2.2843 4.1499,-4.0548 0.9496,-1.7706 1.4244,-4.075 1.4244,-6.9131 z m -8.5354,3.9361 c -0.1655,1.5999 -0.6038,2.7457 -1.3148,3.4373 -0.7111,0.6916 -1.6464,1.0374 -2.8057,1.0374 -1.3394,0 -2.4094,-0.522 -3.21,-1.566 -0.5106,-0.6508 -0.835,-1.6204 -0.9732,-2.9087 z" /><path
         id="path50"
         style="fill:#bdbcbc;fill-opacity:1;fill-rule:evenodd;stroke:none"
         d="m 1831.2504,1626.3239 h 15.551 c 3.3865,0 5.9231,-0.7905 7.6098,-2.3714 1.6867,-1.5809 2.53,-3.8305 2.53,-6.7489 0,-2.9995 -0.9199,-5.3437 -2.7598,-7.0325 -1.8398,-1.6888 -4.6477,-2.5332 -8.4238,-2.5332 h -5.1267 v -10.9795 h -9.3805 z m 9.3805,-12.6783 h 2.3049 c 1.813,0 3.0864,0.3075 3.8201,0.9225 0.7337,0.615 1.1006,1.4022 1.1006,2.3616 0,0.9327 -0.3184,1.7234 -0.9551,2.372 -0.6366,0.6487 -1.834,0.9731 -3.5919,0.9731 h -2.6786 z" /><path
         id="path52"
         style="fill:#bdbcbc;fill-opacity:1;fill-rule:evenodd;stroke:none"
         d="m 1868.4245,1611.2011 -8.0283,0.8286 c 0.3023,1.3785 0.7385,2.4631 1.3085,3.2538 0.57,0.7907 1.3909,1.4766 2.4627,2.058 0.7693,0.4186 1.8272,0.7429 3.1737,0.9727 1.3464,0.2298 2.8029,0.3447 4.3694,0.3447 2.5141,0 4.5336,-0.1384 6.0585,-0.4153 1.5249,-0.2769 2.7958,-0.8542 3.8125,-1.7321 0.7144,-0.6076 1.2777,-1.4687 1.6899,-2.583 0.4122,-1.1143 0.6182,-2.1778 0.6182,-3.1903 v -9.5016 c 0,-1.0129 0.065,-1.8064 0.1961,-2.3804 0.1308,-0.574 0.4162,-1.3066 0.8564,-2.1978 h -7.8699 c -0.3156,0.5494 -0.5215,0.9681 -0.6177,1.2562 -0.096,0.2881 -0.1922,0.7403 -0.2882,1.3566 -1.1004,-1.0367 -2.1939,-1.7771 -3.2806,-2.2212 -1.486,-0.5925 -3.2125,-0.8888 -5.1795,-0.8888 -2.6141,0 -4.5986,0.5952 -5.9536,1.7858 -1.355,1.1905 -2.0325,2.6582 -2.0325,4.4031 0,1.637 0.4883,2.9831 1.465,4.0384 0.9767,1.0552 2.7789,1.8398 5.4066,2.3538 3.1506,0.6224 5.1937,1.0587 6.1292,1.309 0.9355,0.2504 1.926,0.5784 2.9714,0.9841 0,1.0129 -0.2127,1.7219 -0.6381,2.1269 -0.4254,0.4051 -1.1736,0.6076 -2.2445,0.6076 -1.3724,0 -2.4017,-0.2175 -3.0879,-0.6526 -0.5356,-0.3396 -0.9681,-0.9784 -1.2973,-1.9162 z m 7.2678,-4.309 c -1.1572,-0.4087 -2.3628,-0.7699 -3.6167,-1.0837 -1.7083,-0.4497 -2.7897,-0.8925 -3.2444,-1.3284 -0.4684,-0.4497 -0.7025,-0.9607 -0.7025,-1.533 0,-0.6543 0.2308,-1.1893 0.6923,-1.6048 0.4615,-0.4157 1.1401,-0.6235 2.0358,-0.6235 0.9366,0 1.8079,0.2249 2.6138,0.6746 0.8059,0.4497 1.3777,0.9983 1.7153,1.6457 0.3376,0.6473 0.5064,1.4889 0.5064,2.5247 z" /><path
         id="path54"
         style="fill:#bdbcbc;fill-opacity:1;fill-rule:evenodd;stroke:none"
         d="m 1888.9881,1618.1617 h 7.8725 v -3.5055 c 0.7584,1.523 1.5409,2.5709 2.3474,3.1436 0.8066,0.5727 1.8026,0.8591 2.9879,0.8591 1.2408,0 2.5989,-0.3806 4.0743,-1.142 l -2.6059,-5.8471 c -0.9926,0.4057 -1.7785,0.6085 -2.3577,0.6085 -1.103,0 -1.9578,-0.4462 -2.5643,-1.3388 -0.8689,-1.2576 -1.3033,-3.6108 -1.3033,-7.0596 v -7.2215 h -8.4509 z" /><path
         id="path56"
         style="fill:#bdbcbc;fill-opacity:1;fill-rule:evenodd;stroke:none"
         d="m 1915.8411,1611.2011 -8.0283,0.8286 c 0.3023,1.3785 0.7385,2.4631 1.3085,3.2538 0.57,0.7907 1.3909,1.4766 2.4627,2.058 0.7694,0.4186 1.8273,0.7429 3.1736,0.9727 1.3465,0.2298 2.803,0.3447 4.3695,0.3447 2.5141,0 4.5336,-0.1384 6.0585,-0.4153 1.5249,-0.2769 2.7957,-0.8542 3.8125,-1.7321 0.7144,-0.6076 1.2777,-1.4687 1.6899,-2.583 0.4122,-1.1143 0.6182,-2.1778 0.6182,-3.1903 v -9.5016 c 0,-1.0129 0.065,-1.8064 0.1961,-2.3804 0.1308,-0.574 0.4162,-1.3066 0.8564,-2.1978 h -7.8699 c -0.3156,0.5494 -0.5215,0.9681 -0.6177,1.2562 -0.096,0.2881 -0.1922,0.7403 -0.2882,1.3566 -1.1004,-1.0367 -2.1939,-1.7771 -3.2806,-2.2212 -1.486,-0.5925 -3.2125,-0.8888 -5.1795,-0.8888 -2.6141,0 -4.5986,0.5952 -5.9536,1.7858 -1.355,1.1905 -2.0326,2.6582 -2.0326,4.4031 0,1.637 0.4884,2.9831 1.4651,4.0384 0.9767,1.0552 2.7789,1.8398 5.4066,2.3538 3.1506,0.6224 5.1937,1.0587 6.1292,1.309 0.9356,0.2504 1.926,0.5784 2.9714,0.9841 0,1.0129 -0.2127,1.7219 -0.6381,2.1269 -0.4255,0.4051 -1.1736,0.6076 -2.2445,0.6076 -1.3724,0 -2.4017,-0.2175 -3.0879,-0.6526 -0.5356,-0.3396 -0.9681,-0.9784 -1.2973,-1.9162 z m 7.2678,-4.309 c -1.1572,-0.4087 -2.3628,-0.7699 -3.6168,-1.0837 -1.7082,-0.4497 -2.7896,-0.8925 -3.2443,-1.3284 -0.4683,-0.4497 -0.7025,-0.9607 -0.7025,-1.533 0,-0.6543 0.2308,-1.1893 0.6923,-1.6048 0.4615,-0.4157 1.1401,-0.6235 2.0358,-0.6235 0.9366,0 1.8079,0.2249 2.6138,0.6746 0.8059,0.4497 1.3777,0.9983 1.7153,1.6457 0.3376,0.6473 0.5064,1.4889 0.5064,2.5247 z" /><path
         id="path58"
         style="fill:#bdbcbc;fill-opacity:1;fill-rule:evenodd;stroke:none"
         d="m 1952.0867,1618.1617 h 7.8534 v -20.2914 l 0.021,-0.9504 c 0,-1.3487 -0.2921,-2.6334 -0.8764,-3.8542 -0.5844,-1.2207 -1.3613,-2.2087 -2.331,-2.964 -0.9696,-0.7552 -2.2004,-1.3014 -3.6923,-1.6385 -1.4919,-0.3371 -3.2004,-0.5056 -5.1257,-0.5056 -4.4006,0 -7.4226,0.6483 -9.0659,1.9447 -1.6433,1.2965 -2.4649,3.0319 -2.4649,5.2062 0,0.2702 0.014,0.6349 0.042,1.0941 l 8.1559,-0.9115 c 0.2064,-0.7384 0.5226,-1.2486 0.9487,-1.5304 0.6184,-0.4161 1.3951,-0.6241 2.3299,-0.6241 1.21,0 2.114,0.3156 2.7119,0.9468 0.598,0.6312 0.8969,1.7323 0.8969,3.3033 v 3.2427 c -0.8252,-0.9594 -1.6503,-1.6553 -2.4752,-2.0878 -1.2927,-0.6754 -2.6884,-1.0132 -4.1871,-1.0132 -2.9292,0 -5.2944,1.2562 -7.0955,3.7684 -1.2791,1.7829 -1.9186,4.1396 -1.9186,7.0701 0,3.3495 0.8251,5.9022 2.4752,7.6582 1.6501,1.7558 3.8091,2.6338 6.4768,2.6338 1.7047,0 3.1106,-0.2836 4.2176,-0.8506 1.107,-0.5671 2.1417,-1.5054 3.1043,-2.8149 v 3.1683 z m -7.9075,-10.4163 c 0,-1.5546 0.3372,-2.7069 1.0118,-3.457 0.6745,-0.7501 1.5624,-1.1252 2.6637,-1.1252 1.0462,0 1.9239,0.3887 2.633,1.166 0.709,0.7772 1.0636,1.9499 1.0636,3.5178 0,1.568 -0.3717,2.7676 -1.1151,3.5988 -0.7435,0.8312 -1.6521,1.2468 -2.7261,1.2468 -1.0735,0 -1.9304,-0.3818 -2.5706,-1.1455 -0.6402,-0.7637 -0.9603,-2.0309 -0.9603,-3.8017 z" /><path
         id="path60"
         style="fill:#bdbcbc;fill-opacity:1;fill-rule:evenodd;stroke:none"
         d="m 1965.6299,1626.3239 h 8.4087 v -29.6655 h -8.4087 z" /><path
         id="path62"
         style="fill:#bdbcbc;fill-opacity:1;fill-rule:evenodd;stroke:none"
         d="m 1979.7146,1626.3239 h 8.4087 v -5.5934 h -8.4087 z m 0,-8.1622 h 8.4087 v -21.5033 h -8.4087 z" /><path
         id="path64"
         style="fill:#bdbcbc;fill-opacity:1;fill-rule:evenodd;stroke:none"
         d="m 2016.5745,1626.3239 v -29.6655 h -7.8733 v 3.1812 c -1.0999,-1.3548 -2.1037,-2.2693 -3.0112,-2.7436 -1.2105,-0.6232 -2.5582,-0.9348 -4.0433,-0.9348 -2.9837,0 -5.263,1.1148 -6.8376,3.3443 -1.5747,2.2296 -2.362,4.9387 -2.362,8.1272 0,3.5675 0.8698,6.2971 2.6093,8.1887 1.7394,1.8917 3.9498,2.8375 6.6313,2.8375 1.3059,0 2.4918,-0.2151 3.5576,-0.6454 1.0658,-0.4303 2.0112,-1.0758 2.836,-1.9364 v 10.2468 z m -8.4311,-18.8336 c 0,1.6923 -0.3637,2.9548 -1.0911,3.7875 -0.7273,0.8328 -1.6469,1.2491 -2.7587,1.2491 -0.9745,0 -1.7911,-0.3994 -2.4498,-1.1983 -0.6587,-0.7988 -0.988,-2.1391 -0.988,-4.0208 0,-1.7601 0.3397,-3.0496 1.019,-3.8688 0.6794,-0.8191 1.52,-1.2287 2.5218,-1.2287 1.0705,0 1.9625,0.4129 2.6762,1.2387 0.7137,0.8259 1.0706,2.173 1.0706,4.0413 z" /><path
         id="path66"
         style="fill:#bdbcbc;fill-opacity:1;fill-rule:evenodd;stroke:none"
         d="m 2046.0115,1605.3591 h -16.8596 c 0.1519,-1.3219 0.5174,-2.3066 1.0967,-2.954 0.8143,-0.9309 1.8768,-1.3964 3.1875,-1.3964 0.828,0 1.6143,0.2008 2.3591,0.6021 0.4555,0.2547 0.9454,0.7031 1.4696,1.3453 l 8.2819,-0.7458 c -1.2668,-2.158 -2.7952,-3.7056 -4.5853,-4.643 -1.7901,-0.9374 -4.3581,-1.4061 -7.7042,-1.4061 -2.9054,0 -5.1912,0.402 -6.8574,1.206 -1.6662,0.8041 -3.0466,2.0809 -4.1413,3.8306 -1.0946,1.7496 -1.642,3.8068 -1.642,6.1715 0,3.3646 1.0978,6.0874 3.2932,8.1683 2.1955,2.0808 5.2271,3.1213 9.0946,3.1213 3.1383,0 5.616,-0.4663 7.4329,-1.399 1.8169,-0.9326 3.2002,-2.2843 4.1499,-4.0548 0.9496,-1.7706 1.4244,-4.075 1.4244,-6.9131 z m -8.5354,3.9361 c -0.1655,1.5999 -0.6038,2.7457 -1.3148,3.4373 -0.7111,0.6916 -1.6464,1.0374 -2.8057,1.0374 -1.3394,0 -2.4094,-0.522 -3.21,-1.566 -0.5106,-0.6508 -0.835,-1.6204 -0.9732,-2.9087 z" /></g></g></svg>